<mxfile host="Electron" modified="2023-11-11T15:30:52.335Z" agent="Mozilla/5.0 (Macintosh; Intel Mac OS X 10_15_7) AppleWebKit/537.36 (KHTML, like Gecko) draw.io/22.0.3 Chrome/114.0.5735.289 Electron/25.8.4 Safari/537.36" etag="SjXgHwIuoM8ijA8dWVl1" version="22.0.3" type="device">
  <diagram name="Page-1" id="DIyiCXhy0-kuyBT9qirS">
    <mxGraphModel dx="1710" dy="2742" grid="1" gridSize="10" guides="1" tooltips="1" connect="1" arrows="1" fold="1" page="1" pageScale="1" pageWidth="800" pageHeight="800" math="0" shadow="0">
      <root>
        <mxCell id="0" />
        <mxCell id="1" parent="0" />
        <mxCell id="Tys312_1LAsUCiZDHO8G-10" value="" style="group;rotation=-90;" vertex="1" connectable="0" parent="1">
          <mxGeometry x="-20" y="-1580" width="800" height="760" as="geometry" />
        </mxCell>
        <mxCell id="Odn1iNsw_RMKnAQ4CuYD-3" value="" style="rounded=0;whiteSpace=wrap;html=1;fillColor=#FF3333;strokeColor=#FF3333;rotation=-90;" parent="Tys312_1LAsUCiZDHO8G-10" vertex="1">
          <mxGeometry x="-360" y="360" width="800" height="40" as="geometry" />
        </mxCell>
        <mxCell id="Tys312_1LAsUCiZDHO8G-1" value="" style="rounded=0;whiteSpace=wrap;html=1;fillColor=#FF3333;strokeColor=#FF3333;rotation=-90;" vertex="1" parent="Tys312_1LAsUCiZDHO8G-10">
          <mxGeometry x="-280" y="360" width="800" height="40" as="geometry" />
        </mxCell>
        <mxCell id="Tys312_1LAsUCiZDHO8G-2" value="" style="rounded=0;whiteSpace=wrap;html=1;fillColor=#FF3333;strokeColor=#FF3333;rotation=-90;" vertex="1" parent="Tys312_1LAsUCiZDHO8G-10">
          <mxGeometry x="-200" y="360" width="800" height="40" as="geometry" />
        </mxCell>
        <mxCell id="Tys312_1LAsUCiZDHO8G-3" value="" style="rounded=0;whiteSpace=wrap;html=1;fillColor=#FF3333;strokeColor=#FF3333;rotation=-90;" vertex="1" parent="Tys312_1LAsUCiZDHO8G-10">
          <mxGeometry x="-120" y="360" width="800" height="40" as="geometry" />
        </mxCell>
        <mxCell id="Tys312_1LAsUCiZDHO8G-4" value="" style="rounded=0;whiteSpace=wrap;html=1;fillColor=#FF3333;strokeColor=#FF3333;rotation=-90;" vertex="1" parent="Tys312_1LAsUCiZDHO8G-10">
          <mxGeometry x="-40" y="360" width="800" height="40" as="geometry" />
        </mxCell>
        <mxCell id="Tys312_1LAsUCiZDHO8G-5" value="" style="rounded=0;whiteSpace=wrap;html=1;fillColor=#FF3333;strokeColor=#FF3333;rotation=-90;" vertex="1" parent="Tys312_1LAsUCiZDHO8G-10">
          <mxGeometry x="40" y="360" width="800" height="40" as="geometry" />
        </mxCell>
        <mxCell id="Tys312_1LAsUCiZDHO8G-6" value="" style="rounded=0;whiteSpace=wrap;html=1;fillColor=#FF3333;strokeColor=#FF3333;rotation=-90;" vertex="1" parent="Tys312_1LAsUCiZDHO8G-10">
          <mxGeometry x="120" y="360" width="800" height="40" as="geometry" />
        </mxCell>
        <mxCell id="Tys312_1LAsUCiZDHO8G-7" value="" style="rounded=0;whiteSpace=wrap;html=1;fillColor=#FF3333;strokeColor=#FF3333;rotation=-90;" vertex="1" parent="Tys312_1LAsUCiZDHO8G-10">
          <mxGeometry x="200" y="360" width="800" height="40" as="geometry" />
        </mxCell>
        <mxCell id="Tys312_1LAsUCiZDHO8G-8" value="" style="rounded=0;whiteSpace=wrap;html=1;fillColor=#FF3333;strokeColor=#FF3333;rotation=-90;" vertex="1" parent="Tys312_1LAsUCiZDHO8G-10">
          <mxGeometry x="280" y="360" width="800" height="40" as="geometry" />
        </mxCell>
        <mxCell id="Tys312_1LAsUCiZDHO8G-9" value="" style="rounded=0;whiteSpace=wrap;html=1;fillColor=#FF3333;strokeColor=#FF3333;rotation=-90;" vertex="1" parent="Tys312_1LAsUCiZDHO8G-10">
          <mxGeometry x="360" y="360" width="800" height="40" as="geometry" />
        </mxCell>
      </root>
    </mxGraphModel>
  </diagram>
</mxfile>
